<?xml version="1.0" encoding="utf-8"?>
<!-- Generator: Adobe Illustrator 21.0.2, SVG Export Plug-In . SVG Version: 6.00 Build 0)  -->
<svg version="1.2" baseProfile="tiny" id="Layer_1" xmlns="http://www.w3.org/2000/svg" xmlns:xlink="http://www.w3.org/1999/xlink"
	 x="0px" y="0px" viewBox="0 0 100 100" xml:space="preserve">
<path fill="#333F4D" d="M93.1,41.3c-0.9-1.1-2.3-1.7-3.8-1.7h-7.7l0.9-6c0.2-1.1-0.2-2.3-0.9-3.1c-0.7-0.9-1.8-1.4-3-1.4h-0.5
	c-1-4.8-5.2-8.4-10.3-8.4h-3.8C62.4,5.3,47.5,0,46.1,0c-1.4,0-16.3,5.3-17.8,20.7h-3.8c-5.1,0-9.3,3.6-10.3,8.4H9.7
	c-1.5,0-2.9,0.9-3.6,2.2c-0.7,1.4-0.5,3,0.5,4.2l7.6,9.4l4.3,29.6c0.6,3.6,2.4,7.7,7.5,9.5c-4.7,2-8.1,6.3-8.9,11.5h-0.9
	c-1.2,0-2.2,1-2.2,2.2c0,1.2,1,2.2,2.2,2.2h63.1c1.2,0,2.2-1,2.2-2.2c0-1.2-1-2.2-2.2-2.2h-0.9c-0.8-5.3-4.4-9.8-9.3-11.7
	c3.9-1.5,6.3-4.5,7.1-9.1h0.7c0.2,0,0.5,0,0.8,0c4.5,0,10.5-3,12.6-11.4c2.1-8.5,3.6-17.8,3.7-18.2C94.4,43.9,94,42.4,93.1,41.3z
	 M46.1,3.8c0.2,0.1,0.4,0.1,0.7,0.2c1.8,2,4.9,7,5.4,16.7H40.1C40.6,11,43.7,6.1,45.5,4C45.7,3.9,46,3.8,46.1,3.8z M60.2,20.7h-5.7
	C54.2,14.2,52.7,9.4,51,6.2C54.8,8.7,59.4,13.2,60.2,20.7z M41.3,6.2c-1.7,3.2-3.2,7.9-3.5,14.5h-5.7C32.9,13.2,37.5,8.7,41.3,6.2z
	 M86.4,62.4c-1.9,7.7-7.4,8.1-8.4,8.1c-0.2,0-0.3,0-0.5,0l-4.7,0l-0.5,3.3c-0.8,4.9-3.5,6.9-9.3,6.9H32.1c-5.5,0-8.3-2-9.2-6.3H31
	c0.6,0,1.1-0.5,1.1-1.1c0-0.6-0.5-1.1-1.1-1.1h-8.4l-0.6-4h7.5c0.6,0,1.1-0.5,1.1-1.2c0-0.6-0.5-1.1-1.1-1.1h-7.8l-0.6-4h7.5
	c0.6,0,1.1-0.5,1.1-1.1s-0.5-1.1-1.1-1.1h-7.9l-0.6-4h7.5c0.6,0,1.1-0.5,1.1-1.1c0-0.6-0.5-1.1-1.1-1.1h-7.8l-0.6-4h7.5
	c0.6,0,1.1-0.5,1.1-1.2c0-0.6-0.5-1.1-1.1-1.1h-7.8l-0.6-3.9l-7.9-9.8h67.9l-1.5,10.5h12.7c0.2,0,0.4,0.1,0.5,0.2
	c0.1,0.1,0.2,0.3,0.1,0.5C89.9,45,88.4,54.1,86.4,62.4z"/>
</svg>
